PathFileType	4	(X/Y/Z)	Patient4_TMGait_0pt3_02_left_10.trc.trc
DataRate	CameraRate	NumFrames	NumMarkers	Units	OrigDataRate	OrigDataStartFrame	OrigNumFrames
50.359712230216	50.359712230216	5	33	mm	50.359712230216	1	       141
Frame#	Time	Sacral			L.Shoulder			Chest			R.Shoulder			Neck			R.ASIS			L.ASIS			R.Thigh.Superior			R.Thigh.Lateral			R.Thigh.Inferior			R.Patella			L.Thigh.Superior			L.Thigh.Lateral			L.Thigh.Inferior			L.Patella			L.Shank.Superior			L.Shank.Lateral			L.Shank.Inferior			R.Shank.Superior			R.Shank.Lateral			R.Shank.Inferior			R.Heel			R.Midfoot.Superior			R.Midfoot.Lateral			R.Toe			L.Heel			L.Midfoot.Lateral			L.Midfoot.Superior			L.Toe			L.Elbow			L.Wrist			R.Elbow			R.Wrist			
		X1	Y1	Z1	X2	Y2	Z2	X3	Y3	Z3	X4	Y4	Z4	X5	Y5	Z5	X6	Y6	Z6	X7	Y7	Z7	X8	Y8	Z8	X9	Y9	Z9	X10	Y10	Z10	X11	Y11	Z11	X12	Y12	Z12	X13	Y13	Z13	X14	Y14	Z14	X15	Y15	Z15	X16	Y16	Z16	X17	Y17	Z17	X18	Y18	Z18	X19	Y19	Z19	X20	Y20	Z20	X21	Y21	Z21	X22	Y22	Z22	X23	Y23	Z23	X24	Y24	Z24	X25	Y25	Z25	X26	Y26	Z26	X27	Y27	Z27	X28	Y28	Z28	X29	Y29	Z29	X30	Y30	Z30	X31	Y31	Z31	X32	Y32	Z32	X33	Y33	Z33	

1	19.410000000000	763.759102439403	994.894207302530	543.619792978377	975.236356011148	1431.865053420041	411.696210419100	1039.163315469649	1355.026768722634	588.837986227725	919.635474211029	1420.950440865623	742.175253400103	925.973251139048	1487.323697747306	565.746346668696	973.492241655039	935.921902366303	702.213568261284	1002.743961286668	952.561337161968	430.166886704368	1035.568384943185	739.571047977189	668.827979569285	954.985662016909	619.815897036360	706.440328709392	1046.144369261827	577.231469274641	635.163543015133	1052.728675257284	482.767715238306	638.123961010025	1059.816024212122	743.615752737666	458.663637880445	1004.974045087867	626.122219210249	372.674699750674	1087.952677846217	546.442057537140	448.803910499355	1081.644585978745	453.052535490425	436.396813484203	996.571995376158	408.115948529671	412.975623403366	855.550061886092	422.707282727267	346.358365064518	792.481694285406	303.054044183371	384.095418707846	1011.020164748501	394.382557552225	631.233633579131	921.697885998313	296.342197549786	678.590639450650	957.614256142507	202.242834708656	611.378677955737	809.503684905081	44.217110734964	565.205894553622	981.436988000915	96.710948022719	605.526976608271	891.173098068935	37.406472416653	641.170156884889	1099.597768177931	43.725877577638	635.239121450869	584.921947572078	299.448213267466	396.946563674717	638.858954295870	253.061815993681	314.348465874303	738.559529562168	224.893062893656	345.828914134075	785.053354456047	100.442416572396	300.888080269961	1035.481918152140	1087.119276811337	286.794515864331	1203.124035219587	887.389052538969	322.828250475265	916.402804939684	1068.102396389190	857.913980260578	1077.657548822925	865.753239652783	907.092822178020	
2	19.429857142857	762.349167220865	989.933883029791	547.720835276552	969.480896876026	1427.366063782338	411.353007323856	1036.239342663514	1352.032482402230	587.972797921886	918.746780230732	1417.965389138157	742.947409003281	922.393682536047	1483.712975159067	566.065964046028	974.972710896009	932.734429884198	702.301383944839	999.913757728087	950.043754672610	429.932903015407	1038.131290595891	737.299333018394	665.951514680738	960.397997519476	616.649766390189	705.634461406378	1050.115412047677	575.117194971712	631.938679770040	1057.151417480833	479.419874932737	634.614989997292	1061.481042677890	743.372252567407	460.297746369373	1009.759278884105	624.913117980533	374.435395740365	1092.714708267045	546.715934559753	451.915703811464	1088.756413473541	453.414872257278	438.975078967459	1005.444057580120	406.686311252566	414.383898037466	864.125263933886	416.597320829073	347.948258078253	806.216785605777	294.182115948165	384.177929934301	1013.473574297427	391.244315961029	628.695868791501	922.983528282168	294.856844278353	677.561041009946	955.139036091525	200.456346423596	609.721887334657	803.632339435199	44.589758279996	565.011557179659	975.993881256945	96.908944349135	605.550604828126	885.313396046696	37.594497108462	640.977436309961	1093.778580735719	42.897353042446	635.164264897796	599.397177527856	281.677551659367	397.405485084882	654.738887044888	238.919056394379	314.042764892221	755.430260940321	214.779876036919	344.951310570826	806.985909675193	93.426080791344	298.156508999121	1019.920239833906	1079.559343474864	290.513062982157	1167.068179087474	868.041208559125	321.594470873227	926.439523058612	1066.518279155579	860.813053920790	1100.756041060226	877.470766202175	907.346663617213	
3	19.449714285714	760.807988634556	984.977211209887	551.814342835065	963.501229802044	1422.851045961071	410.940641723252	1033.289833606848	1348.971985424816	586.910363100604	918.047864884653	1414.935038587793	743.644913035167	918.819606775852	1480.074391649182	566.327024811884	976.330169872273	929.554489475900	702.325802232575	996.908708787072	947.465917480955	429.636941300793	1040.544881490736	734.966175700646	663.294525714960	965.541381983921	613.449402372933	704.893147734775	1053.917177307223	572.945423534460	628.902641498093	1061.383657557669	476.035922908569	631.301752952764	1063.006388233274	743.260034407036	461.779241571975	1014.438729367890	623.804617110767	376.044666620126	1097.642148459244	547.241217370489	454.696610878654	1096.148147168138	454.092017134997	441.291579716561	1014.788643831599	405.398473693296	415.664077512193	873.202289069416	410.036230021956	349.570042998569	820.999961088888	284.823433462358	384.439179321918	1015.728741660462	388.075582495983	626.285423081460	924.013672961395	293.375313188981	676.579920377116	952.478604260462	198.675812864059	608.155488506103	797.590271343283	44.969845897625	564.832137894131	970.362308335172	97.083060722182	605.564710361349	879.281607244508	37.775740658634	640.795176990912	1087.780823330920	42.106532425564	635.099492723402	615.241955066608	262.722744863829	398.239426293077	671.960963968699	223.701212398183	314.104682833270	773.630824989179	204.035099078692	344.378580319613	830.558183645133	86.037100832230	295.815982619108	1003.352708286424	1072.149970614520	293.994642466429	1129.903724022017	849.334166054169	320.173826330537	936.981219805485	1065.094157820577	863.671941519528	1124.426670033413	890.127754545861	907.200577560790	
4	19.469571428571	759.128671719180	980.231718347108	555.777104412090	957.379038140220	1418.497651557877	410.432120609594	1030.391000636731	1345.959333385172	585.581719881664	917.647367040667	1411.985029056861	744.191380164535	915.362233289974	1476.554298896085	566.481205741914	977.475495120480	926.515084940556	702.244109786485	993.726426008111	944.925893885088	429.253031238857	1042.634026869850	732.642747056905	660.979916625187	970.099609675575	610.331610143102	704.242324107130	1057.282895591637	570.776339839412	626.184887214872	1065.123560547517	472.732446512609	628.330102817779	1064.254303199726	743.373564441749	462.975716599387	1018.781347125724	622.907399589409	377.386566418434	1102.595624349335	548.140195485178	456.899513855057	1103.651485845218	455.242409213460	443.147896800354	1024.474650704537	404.406238670185	416.713350145317	882.726867921931	403.080799697111	351.165786629281	836.847260367773	275.144071722625	384.931538435549	1017.556670540499	384.987400178442	624.107117800487	924.599583069168	291.951773010380	675.687544425812	949.602249632167	196.968235833433	606.756853834236	791.480153776387	45.340236174405	564.682739639161	964.619932546846	97.214399619354	605.558640814257	873.179754702666	37.939401303950	640.635981852097	1081.704026234376	41.397305101423	635.050753304199	632.633054915817	242.755083681931	399.558120700597	690.653087841721	207.523405049829	314.669808726645	793.216752619325	192.829482302332	344.247267664018	855.784537386972	78.490927992717	294.102163401389	985.880365312651	1065.272363988082	297.008087942606	1092.385278054188	832.233870194616	318.525798282361	947.939958639034	1064.026312392795	866.357413806256	1148.124709176901	903.829864834609	906.432069204554	
5	19.489428571429	757.311297166127	975.892015489427	559.523482631007	951.172844126441	1414.472495044387	409.802823422152	1027.595637040847	1343.116821670125	583.927490509100	917.625784541436	1409.254339470293	744.514927679897	912.101487837691	1473.297109476768	566.481733349092	978.345223308846	923.742123265658	702.024701620208	990.351882627295	942.529613716523	428.765222121394	1044.245197944540	730.397356434631	659.068729423275	973.804872068193	607.406241711707	703.682648645678	1059.960078269970	568.668708323038	623.847088497823	1068.082711118916	469.616121100292	625.767909949796	1065.102304799329	743.807218871624	463.763505552778	1022.567251026595	622.323697465666	378.360563152756	1107.428685375221	549.524744746509	458.314883484820	1111.092415683474	457.014322722946	444.381741438417	1034.360675178518	403.866600652062	417.449384421613	892.662410825194	395.824150076677	352.668217904986	853.764892464953	265.357178894072	385.678570734084	1018.736157866437	382.081972770151	622.210250796158	924.574371385146	290.628471990604	674.905066817126	946.463002332811	195.388386522189	605.567855599412	785.369481196243	45.680131216967	564.573546688273	958.813769322854	97.285713653714	605.517328667251	867.074573814726	38.076297762255	640.510133689919	1075.614151261461	40.801454481303	635.021704386396	651.738077538810	222.024624829785	401.409595345293	710.948288538353	190.586065931334	315.815324796696	814.234778675584	181.394451862433	344.645812297044	882.661277936712	71.066168117912	293.195654191779	967.601776253302	1059.279503480746	299.360710550918	1055.155631599184	817.518041256732	316.618889352998	959.263120381314	1063.524591835875	868.751814564768	1171.403793766735	918.720351782186	904.843884046462	
